<svg width="820" height="180" viewBox="0 0 820 180" fill="none" xmlns="http://www.w3.org/2000/svg">
  <rect x="0" y="0" width="64" height="56" fill="white"/>
  <rect x="0" y="62" width="64" height="56" fill="white"/>
  <rect x="0" y="124" width="64" height="56" fill="white"/>
  <path d="M21 50V21.7C21 12.9 26.3 8 34.1 8C38.3 8 41.8 9.3 44.7 12.1L40.1 16.8C38.2 14.9 36.3 14 33.8 14C29.3 14 27 16.9 27 21.9V28.6H39.3V34.2H27V50H21Z" fill="#0F4878"/>
  <path d="M26.2 112V74H31.9V89.1C34.9 85.6 38.2 84.5 42.4 84.5C46.4 84.5 49.7 85.8 52 88.1C54.8 90.9 55.8 95.1 55.8 98.7C55.8 102.4 54.8 106.6 52 109.4C49.7 111.7 46.4 113 42.4 113C38.1 113 34.8 111.9 31.7 108.1V112H26.2ZM41.2 89.7C34.8 89.7 31.9 95.2 31.9 98.7C31.9 102.3 34.8 107.8 41.2 107.8C47.6 107.8 50.4 102.3 50.4 98.7C50.4 95.2 47.6 89.7 41.2 89.7Z" fill="#0F4878"/>
  <path d="M21 175V146.7C21 137.9 26.3 133 34.1 133C38.3 133 41.8 134.3 44.7 137.1L40.1 141.8C38.2 139.9 36.3 139 33.8 139C29.3 139 27 141.9 27 146.9V153.6H39.3V159.2H27V175H21Z" fill="#0F4878"/>
  <path d="M102.5 132V48H147.4C169.4 48 185.3 61.3 185.3 81.7C185.3 102.1 169.4 115.4 147.4 115.4H125.6V132H102.5ZM125.6 96.2H144.6C153.8 96.2 160.7 90.8 160.7 81.7C160.7 72.6 153.8 67.2 144.6 67.2H125.6V96.2Z" fill="white"/>
  <path d="M192 132L227.6 48H253.2L288.8 132H264.2L257.7 116.4H223.1L216.6 132H192ZM230.7 98.2H250.1L240.4 74.2L230.7 98.2Z" fill="white"/>
  <path d="M297.7 132V48H361.1V67.2H320.8V80.7H355.1V99.9H320.8V112.8H361.1V132H297.7Z" fill="white"/>
  <path d="M372.3 132V48H395.4L425.6 88.7L455.8 48H478.9V132H455.8V84.5L425.6 124.7L395.4 84.5V132H372.3Z" fill="white"/>
  <path d="M486.4 132L522 48H547.6L583.2 132H558.6L552.1 116.4H517.5L511 132H486.4ZM525.1 98.2H544.5L534.8 74.2L525.1 98.2Z" fill="white"/>
  <path d="M591.6 132V48H614.7V112.8H651.8V132H591.6Z" fill="white"/>
  <path d="M659.9 132V48H723.3V67.2H683V80.7H717.3V99.9H683V112.8H723.3V132H659.9Z" fill="white"/>
  <path d="M734.5 132V48H757.6L798.8 96.7V48H821.9V132H798.8L757.6 83.3V132H734.5Z" fill="white"/>
</svg>
